<svg width="637" height="637" viewBox="0 0 637 637" fill="none" xmlns="http://www.w3.org/2000/svg">
<g clip-path="url(#clip0_1042_512)">
<rect width="637" height="637" fill="#1A1A1A"/>
<path d="M693.161 -427.743L-623.632 1532.31L-591.107 1552.06L725.686 -407.988L693.161 -427.743Z" fill="#EC3F4A"/>
<path d="M725.695 -407.962L-591.097 1552.09L-571.511 1563.98L745.281 -396.066L725.695 -407.962Z" fill="#1A1A1A"/>
<path d="M745.281 -396.071L-571.511 1563.98L-538.986 1583.73L777.807 -376.315L745.281 -396.071Z" fill="#FF8A1D"/>
<path d="M777.815 -376.302L-538.978 1583.75L-519.391 1595.64L797.402 -364.406L777.815 -376.302Z" fill="#1A1A1A"/>
<path d="M797.394 -364.425L-519.399 1595.62L-486.874 1615.38L829.919 -344.67L797.394 -364.425Z" fill="#5EC72D"/>
<path d="M829.913 -344.684L-486.879 1615.37L-467.293 1627.26L849.499 -332.787L829.913 -344.684Z" fill="#1A1A1A"/>
<path d="M849.467 -332.791L-467.326 1627.26L-434.801 1647.01L881.992 -313.035L849.467 -332.791Z" fill="#42C3F7"/>
<path d="M882 -313.038L-434.792 1647.01L-415.206 1658.91L901.587 -301.142L882 -313.038Z" fill="#1A1A1A"/>
<path d="M673.55 -439.635L-643.242 1520.42L-623.656 1532.31L693.136 -427.738L673.55 -439.635Z" fill="#1A1A1A"/>
<path d="M512.644 100H121.718C109.652 100 100 109.667 100 121.751V513.277C100 525.361 109.652 535.028 121.718 535.028H512.644C524.71 535.028 534.362 525.361 534.362 513.277V121.751C534.362 109.667 524.71 100 512.644 100Z" fill="white"/>
<path d="M413.706 481.86C451.11 481.86 481.274 451.649 481.274 414.189C481.274 376.728 451.11 346.518 413.706 346.518C376.303 346.518 346.139 376.728 346.139 414.189C346.139 451.649 376.303 481.86 413.706 481.86Z" fill="#1A1A1A"/>
<path d="M153.089 347.968C153.089 347.243 153.813 346.518 154.537 346.518H287.017C287.741 346.518 288.465 347.243 288.465 347.968V412.98C288.465 413.705 287.741 414.43 287.017 414.43H257.095C256.371 414.43 255.647 415.155 255.647 415.88V480.893C255.647 481.618 254.923 482.343 254.199 482.343H188.321C187.597 482.343 186.873 481.618 186.873 480.893V415.88C186.873 415.155 186.149 414.43 185.425 414.43H154.296C153.572 414.43 152.848 413.705 152.848 412.98V347.968H153.089Z" fill="#1A1A1A"/>
<path d="M347.587 153.17C346.863 153.17 346.139 153.895 346.139 154.621V223.017C346.139 259.269 376.303 288.513 413.706 288.513C451.11 288.513 481.274 259.269 481.274 223.017V154.621C481.274 153.895 480.55 153.17 479.826 153.17H347.345H347.587Z" fill="#1A1A1A"/>
<path d="M153.33 286.339C152.848 287.306 153.33 288.272 154.537 288.272H286.776C287.742 288.272 288.465 287.306 287.983 286.339L221.863 154.139C221.381 153.172 219.933 153.172 219.45 154.139L153.33 286.339Z" fill="#1A1A1A"/>
</g>
<defs>
<clipPath id="clip0_1042_512">
<rect width="637" height="637" fill="white"/>
</clipPath>
</defs>
</svg>
