<svg xmlns="http://www.w3.org/2000/svg" viewBox="0 0 120 120" width="120" height="120" fill="none"><path d="M 41.83 30.01 L 20.89 79.67 A 24 24 0 0 0 59.07 106.83 L 99.10 70.74 A 36 36 0 1 0 41.83 30.01 Z" stroke="#C9C9C9" stroke-width="1.6" fill="none" stroke-linejoin="round"/><circle cx="38.9" cy="36.96" r="1.5" fill="#C9C9C9"/><circle cx="33.04" cy="50.85" r="1.5" fill="#C9C9C9"/><circle cx="27.18" cy="64.74" r="1.5" fill="#C9C9C9"/><circle cx="21.32" cy="78.64" r="1.5" fill="#C9C9C9"/><circle cx="19.4" cy="93.35" r="1.5" fill="#C9C9C9"/><circle cx="26.46" cy="106.39" r="1.5" fill="#C9C9C9"/><circle cx="39.84" cy="112.79" r="1.5" fill="#C9C9C9"/><circle cx="54.42" cy="110.11" r="1.5" fill="#C9C9C9"/><circle cx="66.03" cy="100.55" r="1.5" fill="#C9C9C9"/><circle cx="77.23" cy="90.45" r="1.5" fill="#C9C9C9"/><circle cx="88.43" cy="80.36" r="1.5" fill="#C9C9C9"/><circle cx="99.63" cy="70.26" r="1.5" fill="#C9C9C9"/><circle cx="108.18" cy="57.97" r="1.5" fill="#C9C9C9"/><circle cx="110.99" cy="43.27" r="1.5" fill="#C9C9C9"/><circle cx="107.59" cy="28.7" r="1.5" fill="#C9C9C9"/><circle cx="98.55" cy="16.77" r="1.5" fill="#C9C9C9"/><circle cx="85.44" cy="9.55" r="1.5" fill="#C9C9C9"/><circle cx="70.52" cy="8.28" r="1.5" fill="#C9C9C9"/><circle cx="56.38" cy="13.19" r="1.5" fill="#C9C9C9"/><circle cx="45.46" cy="23.42" r="1.5" fill="#C9C9C9"/><circle cx="75" cy="44" r="30" fill="#2B2B2B"/><circle cx="43" cy="89" r="19" fill="#F08422"/></svg>
